<svg xmlns="http://www.w3.org/2000/svg" xmlns:xlink="http://www.w3.org/1999/xlink" width="89" height="91" viewBox="0 0 89 91">
  <metadata><?xpacket begin="﻿" id="W5M0MpCehiHzreSzNTczkc9d"?>
<x:xmpmeta xmlns:x="adobe:ns:meta/" x:xmptk="Adobe XMP Core 5.6-c140 79.160451, 2017/05/06-01:08:21        ">
   <rdf:RDF xmlns:rdf="http://www.w3.org/1999/02/22-rdf-syntax-ns#">
      <rdf:Description rdf:about=""/>
   </rdf:RDF>
</x:xmpmeta>
                                                                                                    
                                                                                                    
                                                                                                    
                                                                                                    
                                                                                                    
                                                                                                    
                                                                                                    
                                                                                                    
                                                                                                    
                                                                                                    
                                                                                                    
                                                                                                    
                                                                                                    
                                                                                                    
                                                                                                    
                                                                                                    
                                                                                                    
                                                                                                    
                                                                                                    
                                                                                                    
                           
<?xpacket end="w"?></metadata>
<defs>
    <style>
      .cls-1 {
        fill: #007fc3;
        filter: url(#filter);
      }

      .cls-2 {
        fill: #fff;
        fill-rule: evenodd;
        filter: url(#filter-2);
      }
    </style>
    <filter id="filter" x="0" y="0" width="89" height="91" filterUnits="userSpaceOnUse">
      <feOffset result="offset" dx="1.948" dy="13.864" in="SourceAlpha"/>
      <feGaussianBlur result="blur" stdDeviation="3.606"/>
      <feFlood result="flood" flood-opacity="0.23"/>
      <feComposite result="composite" operator="in" in2="blur"/>
      <feBlend result="blend" in="SourceGraphic"/>
    </filter>
    <filter id="filter-2" x="25" y="19" width="37" height="32" filterUnits="userSpaceOnUse">
      <feOffset result="offset" dx="0.707" dy="0.707" in="SourceAlpha"/>
      <feGaussianBlur result="blur" stdDeviation="1.732"/>
      <feFlood result="flood" flood-opacity="0.38"/>
      <feComposite result="composite" operator="in" in2="blur"/>
      <feBlend result="blend" in="SourceGraphic"/>
    </filter>
  </defs>
  <circle class="cls-1" cx="42" cy="32" r="32"/>
  <path id="Forma_1" data-name="Forma 1" class="cls-2" d="M33.876,29.5H50.124a1.123,1.123,0,1,0,0-2.245H33.876A1.123,1.123,0,1,0,33.876,29.5Zm0,5.422H50.124a1.123,1.123,0,1,0,0-2.245H33.876A1.123,1.123,0,1,0,33.876,34.924ZM27.129,42.18h3.635v3.7A1.125,1.125,0,0,0,31.4,46.89a1.079,1.079,0,0,0,.5.11,1.217,1.217,0,0,0,.689-0.219l6.059-4.574H56.871A1.113,1.113,0,0,0,58,41.085V21.123A1.113,1.113,0,0,0,56.871,20H27.129A1.114,1.114,0,0,0,26,21.123V41.058A1.131,1.131,0,0,0,27.129,42.18Zm1.129-19.935H55.714v17.69H38.255a1.209,1.209,0,0,0-.688.219L33.022,43.6V41.058a1.114,1.114,0,0,0-1.129-1.122H28.258V22.246Z"/>
</svg>
