<svg xmlns="http://www.w3.org/2000/svg" xmlns:xlink="http://www.w3.org/1999/xlink" width="89" height="91" viewBox="0 0 89 91">
  <metadata><?xpacket begin="﻿" id="W5M0MpCehiHzreSzNTczkc9d"?>
<x:xmpmeta xmlns:x="adobe:ns:meta/" x:xmptk="Adobe XMP Core 5.6-c140 79.160451, 2017/05/06-01:08:21        ">
   <rdf:RDF xmlns:rdf="http://www.w3.org/1999/02/22-rdf-syntax-ns#">
      <rdf:Description rdf:about=""/>
   </rdf:RDF>
</x:xmpmeta>
                                                                                                    
                                                                                                    
                                                                                                    
                                                                                                    
                                                                                                    
                                                                                                    
                                                                                                    
                                                                                                    
                                                                                                    
                                                                                                    
                                                                                                    
                                                                                                    
                                                                                                    
                                                                                                    
                                                                                                    
                                                                                                    
                                                                                                    
                                                                                                    
                                                                                                    
                                                                                                    
                           
<?xpacket end="w"?></metadata>
<defs>
    <style>
      .cls-1 {
        fill: #007fc3;
        filter: url(#filter);
      }

      .cls-2 {
        fill: #fff;
        fill-rule: evenodd;
        filter: url(#filter-2);
      }
    </style>
    <filter id="filter" x="0" y="0" width="89" height="91" filterUnits="userSpaceOnUse">
      <feOffset result="offset" dx="1.948" dy="13.864" in="SourceAlpha"/>
      <feGaussianBlur result="blur" stdDeviation="3.606"/>
      <feFlood result="flood" flood-opacity="0.23"/>
      <feComposite result="composite" operator="in" in2="blur"/>
      <feBlend result="blend" in="SourceGraphic"/>
    </filter>
    <filter id="filter-2" x="20" y="10" width="47" height="46" filterUnits="userSpaceOnUse">
      <feOffset result="offset" dx="0.707" dy="0.707" in="SourceAlpha"/>
      <feGaussianBlur result="blur" stdDeviation="1.732"/>
      <feFlood result="flood" flood-opacity="0.38"/>
      <feComposite result="composite" operator="in" in2="blur"/>
      <feBlend result="blend" in="SourceGraphic"/>
    </filter>
  </defs>
  <circle id="Ellipse_4_copy" data-name="Ellipse 4 copy" class="cls-1" cx="42" cy="32" r="32"/>
  <path id="Forma_1" data-name="Forma 1" class="cls-2" d="M62.813,28.976A18.988,18.988,0,0,0,59.027,19.6a20.7,20.7,0,0,0-13.554-8.216c-1.127-.19-2.279-0.24-3.418-0.355H41.828c-1.065.113-2.135,0.188-3.193,0.347C27.774,13,19.922,23.02,21.163,33.677a19.794,19.794,0,0,0,6.663,12.883,20.744,20.744,0,0,0,16.321,5.3,20.216,20.216,0,0,0,12.369-5.589A19.73,19.73,0,0,0,62.813,28.976ZM58.387,39.45a15.1,15.1,0,0,1-1.5-3.233c-0.435-1.558-1.48-.053-1.567.965s-0.783,1.781-2.176.254-1.654-1.187-2.089-1.187-1.218,1.017-1.045,5.765c0.124,3.391,1.5,3.929,2.394,4.174a18.346,18.346,0,0,1-26.239-6.455A17.048,17.048,0,0,1,28,20.938c0.1,0.764.2,1.451,0.279,2.14a17.078,17.078,0,0,1-.34,5.589A2.656,2.656,0,0,0,28,29.9a0.849,0.849,0,0,0,.614.482,0.781,0.781,0,0,0,.562-0.465,5.105,5.105,0,0,0,.176-1.181c0.029-.28.029-0.564,0.049-1,0.295,0.233.509,0.374,0.688,0.548,0.455,0.447.915,0.891,1.33,1.371a1.311,1.311,0,0,1,.367.767,2.17,2.17,0,0,0,.537,1.352,7.6,7.6,0,0,1,.7,1.636c0.09,0.233.109,0.495,0.217,0.719a1.32,1.32,0,0,0,1.174.842,0.871,0.871,0,0,1,.954.9c-0.161.017-.321,0.039-0.481,0.054a1.024,1.024,0,0,0-1.116,1.166,5.287,5.287,0,0,0,1.753,3.839c0.314,0.286.648,0.553,0.953,0.847a2.1,2.1,0,0,1,.605,2.383,7.377,7.377,0,0,0-.452,1.33,3.717,3.717,0,0,0,.037,1.421c0.114,0.471.065,1.5,0.566,1.419,0.885-.152,1.394.019,1.463-0.948A0.757,0.757,0,0,0,38.642,47c-0.263-.906.932-3.479,1.649-3.948a17.866,17.866,0,0,0,1.782-1.281A2.27,2.27,0,0,0,42.9,39.2a2.008,2.008,0,0,1,.743-2.282A2.846,2.846,0,0,0,44.754,34.6a1.47,1.47,0,0,0-1.548-1.569,6.368,6.368,0,0,0-1.216.375,13.136,13.136,0,0,1-1.78.574,1.675,1.675,0,0,1-1.758-1.054c-0.306-.529-0.407-0.57-0.938-0.24-0.448.279-.9,0.56-1.36,0.812a0.777,0.777,0,0,1-1.117-.227,3.658,3.658,0,0,0-.807-0.562,3.76,3.76,0,0,1-.641-0.306,1.23,1.23,0,0,1-.492-0.735,1.089,1.089,0,0,1,.619-0.7,9.219,9.219,0,0,1,1.5-.321,5.237,5.237,0,0,0,.791-0.213c0.346-.134.331-0.356,0.067-0.564a1.775,1.775,0,0,0-.45-0.235c-0.765-.3-1.534-0.587-2.3-0.889a3.151,3.151,0,0,1-.548-0.274c-0.481-.308-0.539-0.646-0.1-1.022,1.722-1.48,3.733-1.912,5.516.053,0.552,0.608.927,1.367,1.448,2.006a8.015,8.015,0,0,0,1.4,1.366,1.075,1.075,0,0,0,.938.058,0.707,0.707,0,0,0,.19-0.988,5,5,0,0,0-.558-0.9,3.23,3.23,0,0,1,1.04-4.78A2.857,2.857,0,0,0,44.3,22.628c-0.379.1-.655,0.165-0.925,0.245-1.506.454-.457-0.64,0.235-0.831,0.421-.116-0.377-0.43-0.377-0.43,0.019-.033.529-0.174,1.1-0.41a4.644,4.644,0,0,0,1.115-.6,2.351,2.351,0,0,0,.429-0.741l-0.1-.118c-0.4.052-.8,0.11-1.195,0.153-0.675.074-.834-0.055-0.9-0.719a0.629,0.629,0,0,0-.961-0.468c-0.3.158-.559,0.387-0.847,0.57a0.847,0.847,0,0,1-1.425-.473c-0.156-.431-0.372-0.513-0.78-0.271-0.2.12-.376,0.3-0.584,0.411a7,7,0,0,1-1.056.5A0.8,0.8,0,0,1,37,19.274a0.785,0.785,0,0,1,.3-1.067,9.68,9.68,0,0,1,1.342-.82c0.656-.36,1.351-0.659,1.984-1.051a1.119,1.119,0,0,0,.518-1.315,0.57,0.57,0,0,0-.9-0.413c-0.368.177-.69,0.457-1.069,0.6a1.855,1.855,0,0,1-.919.053,0.62,0.62,0,0,1-.229-0.487,0.472,0.472,0,0,1,.336-0.292c0.915-.14,1.834-0.257,2.755-0.359a0.507,0.507,0,0,1,.381.156,4.463,4.463,0,0,0,2.349,1.369c0.75,0.217.858,0.114,0.962-.652,0.963-.221,1.942-0.656,2.911-0.061A8.964,8.964,0,0,1,49.2,16.12a0.9,0.9,0,0,1-.01.659c-0.071.29-.236,0.557-0.312,0.847a0.766,0.766,0,0,0,.822.991c0.188,0,.376-0.042.565-0.05a0.56,0.56,0,0,1,.7.721c-0.071.767,0.06,0.86,0.854,0.728a1.624,1.624,0,0,1,.726.143,1.575,1.575,0,0,1,.369.268,0.857,0.857,0,0,0,1.521-.551c0.024-.1.02-0.2,0.041-0.3,0.086-.4.318-0.5,0.6-0.218,0.588,0.605,1.139,1.245,1.735,1.907a1.875,1.875,0,0,0-.52,1.949,3.237,3.237,0,0,1-.355,2.085,14.469,14.469,0,0,0-.814,1.945c-0.294,1,.04,1.463,1.088,1.687,1,0.212,1.163.407,1.2,1.36a3.072,3.072,0,0,0,1.9,2.767c0.26,0.126.536,0.221,0.8,0.329A15.784,15.784,0,0,1,58.387,39.45Z"/>
</svg>
